<svg width="75" height="81" viewBox="0 0 75 81" fill="none" xmlns="http://www.w3.org/2000/svg">
<path d="M37.2 48.73C29.98 48.73 20.01 51.71 11.59 54.82L8.75 51.98C17.87 48.31 29.87 44.22 37.2 44.22C42.43 44.22 50.68 46.29 61.08 50.2C62.68 50.8 64.21 51.4 65.65 51.99L62.81 54.83C54.4 51.73 44.43 48.74 37.2 48.74V48.73ZM37.2 69.24C34.48 69.24 31.11 69.81 27.48 70.71L37.2 80.43L46.93 70.7C43.04 69.74 39.76 69.24 37.2 69.24ZM37.2 31.69C27.07 31.69 8.02 39.51 0 43.21L2.63 45.84C11.71 42.01 27.13 36.21 37.2 36.21C47.27 36.21 62.7 42.02 71.77 45.84L74.4 43.21C72.11 42.16 67.03 39.9 61.08 37.66C50.69 33.75 42.43 31.68 37.2 31.68V31.69ZM37.2 23.7C46.52 23.7 60.43 28.67 69.65 32.45L37.2 0L4.76 32.45C13.98 28.67 27.88 23.7 37.21 23.7H37.2ZM53.43 64.19L56.55 61.07C48.28 58.22 41.64 56.72 37.2 56.72C32.76 56.72 26.12 58.22 17.85 61.07L20.97 64.19C26.75 62.48 32.55 61.24 37.2 61.24C41.85 61.24 47.65 62.48 53.43 64.19Z" fill="url(#paint0_linear_2179_35570)"/>
<defs>
<linearGradient id="paint0_linear_2179_35570" x1="37.2" y1="0" x2="37.2" y2="80.43" gradientUnits="userSpaceOnUse">
<stop offset="0.188302" stop-color="#00EEA4"/>
<stop offset="1" stop-color="#005BFC"/>
</linearGradient>
</defs>
</svg>
