<svg width="21" height="21" viewBox="0 0 21 21" fill="none" xmlns="http://www.w3.org/2000/svg">
<path d="M7.2379 10.3778C7.2379 8.56961 8.70335 7.10343 10.5116 7.10343C12.3198 7.10343 13.786 8.56961 13.786 10.3778C13.786 12.1859 12.3198 13.6521 10.5116 13.6521C8.70335 13.6521 7.2379 12.1859 7.2379 10.3778ZM5.46778 10.3778C5.46778 13.1633 7.72589 15.4214 10.5116 15.4214C13.2973 15.4214 15.5554 13.1633 15.5554 10.3778C15.5554 7.59218 13.2973 5.33417 10.5116 5.33417C7.72589 5.33417 5.46778 7.59218 5.46778 10.3778ZM14.5763 5.13419C14.5762 5.36731 14.6453 5.59522 14.7747 5.7891C14.9042 5.98298 15.0882 6.13413 15.3035 6.22343C15.5189 6.31272 15.7559 6.33616 15.9845 6.29077C16.2132 6.24538 16.4233 6.13321 16.5882 5.96844C16.7531 5.80366 16.8654 5.59369 16.911 5.36507C16.9566 5.13645 16.9333 4.89945 16.8442 4.68404C16.7551 4.46863 16.6041 4.28449 16.4103 4.1549C16.2165 4.02531 15.9886 3.95609 15.7555 3.956H15.755C15.4426 3.95614 15.1429 4.0803 14.9219 4.30121C14.7009 4.52212 14.5766 4.82171 14.5763 5.13419ZM6.54324 18.3728C5.58558 18.3292 5.06506 18.1697 4.71914 18.0349C4.26055 17.8564 3.93334 17.6438 3.58931 17.3002C3.24528 16.9567 3.03233 16.6298 2.85458 16.1712C2.71973 15.8255 2.56021 15.3048 2.51668 14.3472C2.46906 13.3119 2.45955 13.0008 2.45955 10.3778C2.45955 7.75484 2.46984 7.44469 2.51668 6.40849C2.56029 5.45086 2.72099 4.93122 2.85458 4.58446C3.03311 4.12588 3.24575 3.79868 3.58931 3.45467C3.93286 3.11066 4.25976 2.89771 4.71914 2.71997C5.0649 2.58513 5.58558 2.42561 6.54324 2.38208C7.57863 2.33446 7.88965 2.32496 10.5116 2.32496C13.1335 2.32496 13.4448 2.33525 14.4811 2.38208C15.4388 2.42569 15.9584 2.58638 16.3052 2.71997C16.7638 2.89771 17.091 3.11113 17.435 3.45467C17.7791 3.79821 17.9912 4.12588 18.1698 4.58446C18.3046 4.9302 18.4641 5.45086 18.5077 6.40849C18.5553 7.44469 18.5648 7.75484 18.5648 10.3778C18.5648 13.0008 18.5553 13.311 18.5077 14.3472C18.464 15.3048 18.3037 15.8253 18.1698 16.1712C17.9912 16.6298 17.7786 16.957 17.435 17.3002C17.0915 17.6435 16.7638 17.8564 16.3052 18.0349C15.9594 18.1698 15.4388 18.3293 14.4811 18.3728C13.4457 18.4204 13.1347 18.4299 10.5116 18.4299C7.88847 18.4299 7.57831 18.4204 6.54324 18.3728ZM6.46191 0.615025C5.41624 0.662643 4.7017 0.828443 4.07769 1.07125C3.43144 1.32199 2.88436 1.65838 2.33767 2.20418C1.79098 2.74998 1.45544 3.29791 1.20469 3.94413C0.961876 4.56851 0.796071 5.28262 0.748451 6.32826C0.700045 7.37554 0.688965 7.71036 0.688965 10.3778C0.688965 13.0452 0.700045 13.38 0.748451 14.4273C0.796071 15.473 0.961876 16.187 1.20469 16.8114C1.45544 17.4572 1.79106 18.0058 2.33767 18.5513C2.88428 19.0969 3.43144 19.4328 4.07769 19.6843C4.70288 19.9271 5.41624 20.0929 6.46191 20.1405C7.50979 20.1881 7.84407 20.2 10.5116 20.2C13.1791 20.2 13.5139 20.1889 14.5612 20.1405C15.607 20.0929 16.3211 19.9271 16.9455 19.6843C17.5913 19.4328 18.1388 19.0971 18.6855 18.5513C19.2322 18.0055 19.567 17.4572 19.8185 16.8114C20.0613 16.187 20.2279 15.4729 20.2747 14.4273C20.3223 13.3792 20.3334 13.0452 20.3334 10.3778C20.3334 7.71036 20.3223 7.37554 20.2747 6.32826C20.2271 5.28255 20.0613 4.56812 19.8185 3.94413C19.567 3.2983 19.2313 2.75085 18.6855 2.20418C18.1397 1.65752 17.5913 1.32199 16.9463 1.07125C16.3211 0.828443 15.6069 0.661858 14.562 0.615025C13.5147 0.567407 13.1799 0.555542 10.5124 0.555542C7.84486 0.555542 7.50979 0.566621 6.46191 0.615025Z" fill="#122024"/>
</svg>
