<svg width="18" height="16" viewBox="0 0 18 16" fill="none" xmlns="http://www.w3.org/2000/svg">
<path d="M4.61779 15.933V5.73722H1.05451V15.933H4.61816H4.61779ZM2.83689 4.3454C4.07922 4.3454 4.85265 3.56248 4.85265 2.58405C4.8294 1.58333 4.07922 0.822266 2.86052 0.822266C1.64098 0.822266 0.844482 1.58333 0.844482 2.58396C0.844482 3.56239 1.61763 4.34531 2.81355 4.34531H2.83662L2.83689 4.3454ZM6.59011 15.933H10.1531V10.2398C10.1531 9.93552 10.1764 9.6304 10.2705 9.41304C10.528 8.80396 11.1142 8.17347 12.0988 8.17347C13.3878 8.17347 13.9038 9.10837 13.9038 10.4791V15.933H17.4667V10.0871C17.4667 6.95548 15.7091 5.49819 13.3648 5.49819C11.4428 5.49819 10.5986 6.51987 10.1297 7.21574H10.1534V5.73757H6.59029C6.6368 6.69406 6.59001 15.9334 6.59001 15.9334L6.59011 15.933Z" fill="#122024"/>
</svg>
