<svg width="20" height="17" viewBox="0 0 20 17" fill="none" xmlns="http://www.w3.org/2000/svg">
<path d="M19.7792 2.72829C19.1438 2.99625 18.4757 3.18283 17.7916 3.28345C18.1115 3.22972 18.5821 2.66561 18.7694 2.43728C19.054 2.09286 19.2709 1.69969 19.4091 1.27772C19.4091 1.24638 19.4411 1.20161 19.4091 1.17922C19.393 1.1706 19.3749 1.16608 19.3566 1.16608C19.3382 1.16608 19.3202 1.1706 19.304 1.17922C18.5612 1.57339 17.7705 1.87424 16.9509 2.07464C16.9223 2.08319 16.8919 2.08396 16.8629 2.07686C16.8339 2.06976 16.8075 2.05506 16.7864 2.03434C16.7226 1.9599 16.6539 1.88961 16.5807 1.82392C16.2464 1.53043 15.8671 1.29021 15.4567 1.11207C14.9027 0.889368 14.3043 0.792921 13.7067 0.830012C13.1268 0.865895 12.5606 1.01829 12.0434 1.27772C11.5341 1.55123 11.0865 1.92281 10.7275 2.37012C10.3498 2.83052 10.0772 3.36483 9.92787 3.9371C9.80474 4.48144 9.79078 5.04405 9.88674 5.59361C9.88674 5.68763 9.88674 5.70106 9.80449 5.68763C6.54659 5.21754 3.87356 4.08484 1.68944 1.65379C1.59349 1.54634 1.54323 1.54634 1.46555 1.65379C0.515139 3.06855 0.976636 5.30708 2.16465 6.41292C2.32458 6.56066 2.48907 6.70393 2.6627 6.83824C2.11801 6.80035 1.58661 6.65572 1.10001 6.41292C1.00862 6.35472 0.958359 6.38606 0.95379 6.49351C0.940837 6.64247 0.940837 6.79225 0.95379 6.94121C1.04913 7.65512 1.33627 8.33142 1.78586 8.90093C2.23544 9.47045 2.83133 9.91275 3.51259 10.1826C3.67866 10.2523 3.85171 10.3048 4.02892 10.3393C3.52466 10.4366 3.00749 10.4517 2.49821 10.3841C2.38855 10.3617 2.34742 10.4199 2.38855 10.5229C3.06023 12.3137 4.51783 12.8599 5.58704 13.1643C5.73326 13.1867 5.87948 13.1867 6.04397 13.2225C6.04397 13.2225 6.04397 13.2225 6.01656 13.2494C5.70128 13.8135 4.42645 14.1941 3.84158 14.3911C2.77404 14.7668 1.63585 14.9104 0.506 14.8119C0.327798 14.785 0.286674 14.7895 0.240982 14.8119C0.195289 14.8343 0.240981 14.8835 0.291244 14.9283C0.519708 15.076 0.748172 15.2059 0.985775 15.3312C1.69312 15.7093 2.44093 16.0096 3.21559 16.2267C7.22742 17.3101 11.7419 16.5132 14.753 13.5807C17.1199 11.2795 17.9515 8.10525 17.9515 4.92653C17.9515 4.80565 18.1023 4.73402 18.1891 4.67134C18.7879 4.21418 19.3159 3.67429 19.7564 3.06855C19.8327 2.97825 19.8718 2.86329 19.8661 2.7462C19.8661 2.67904 19.8661 2.69247 19.7792 2.72829Z" fill="#122024"/>
</svg>
