<svg width="110" height="77" viewBox="0 0 110 77" fill="none" xmlns="http://www.w3.org/2000/svg">
<path d="M55 0L0 19.3166L55 38.6332L110 19.3166L55 0Z" fill="white"/>
<path d="M92.1313 48.6017C92.1313 24.9779 69.7671 13.699 55.074 13.699H54.9259C40.2328 13.699 17.8687 24.9779 17.8687 48.6017C17.8687 72.4351 34.2737 76.882 54.5905 76.9956V77C54.7255 77 54.8606 76.9956 55 76.9956C55.135 76.9956 55.27 77 55.4094 77V76.9956C75.7219 76.882 92.1313 72.4351 92.1313 48.6017Z" fill="white"/>
<path d="M55.0086 68.2634C46.9324 68.2634 41.5701 67.5732 38.4903 66.9922C29.1988 65.7036 22.1245 57.561 22.1245 48.0644C22.1245 40.4635 26.6287 33.6228 33.4808 30.5781L33.4678 30.5082L34.9532 29.9752C34.9532 29.9752 35.0926 29.9272 35.3583 29.8442C36.1729 29.5777 37.1008 29.3593 38.0809 29.1977C41.1432 28.5861 46.6188 27.8435 55.0043 27.8435C69.5798 27.8435 74.8332 29.8966 75.051 29.984L75.3211 30.0932C75.7131 30.2373 76.0965 30.3902 76.4711 30.5562L76.4929 30.565C83.3581 33.6053 87.8623 40.4417 87.8623 48.06C87.8623 56.6306 82.1035 64.214 73.8574 66.4942L73.7965 66.5117C73.3521 66.634 72.8773 66.7563 72.3938 66.848C69.4578 67.4902 64.0083 68.2634 55.0086 68.2634Z" fill="#122024"/>
<path d="M55.0086 68.2634C46.9324 68.2634 41.5701 67.5732 38.4903 66.9922C29.1988 65.7036 22.1245 57.561 22.1245 48.0644C22.1245 40.4635 26.6287 33.6228 33.4808 30.5781L33.4678 30.5082L34.9532 29.9752C34.9532 29.9752 35.0926 29.9272 35.3583 29.8442C36.1729 29.5777 37.1008 29.3593 38.0809 29.1977C41.1432 28.5861 46.6188 27.8435 55.0043 27.8435C69.5798 27.8435 74.8332 29.8966 75.051 29.984L75.3211 30.0932C75.7131 30.2373 76.0965 30.3902 76.4711 30.5562L76.4929 30.565C83.3581 33.6053 87.8623 40.4417 87.8623 48.06C87.8623 56.6306 82.1035 64.214 73.8574 66.4942L73.7965 66.5117C73.3521 66.634 72.8773 66.7563 72.3938 66.848C69.4578 67.4902 64.0083 68.2634 55.0086 68.2634ZM71.7665 62.0735L72.2413 63.7203L71.7883 62.0691C78.0524 60.3349 82.4259 54.5819 82.4259 48.0731C82.4259 41.8701 78.488 36.3486 72.6247 34.3348L71.9887 34.1164C70.4248 33.6708 65.3892 32.5307 55.0086 32.5307C47.4203 32.5307 42.5197 33.1903 39.7405 33.7407C38.9695 33.8718 38.2943 34.029 37.6845 34.2212L37.3142 34.3566C31.4901 36.3879 27.574 41.9007 27.574 48.0731C27.574 55.2808 32.9407 61.4619 40.0629 62.4492C42.8856 62.9777 47.6948 63.5937 55.0086 63.5937C63.1502 63.5937 68.0072 62.9122 70.647 62.34C71.0521 62.2613 71.4093 62.1696 71.7665 62.0735Z" fill="url(#paint0_linear_2339_211)"/>
<path d="M46.4924 43.8315H42.842V52.2841H46.4924V43.8315Z" fill="white"/>
<path d="M67.1577 43.8315H63.5073V52.2841H67.1577V43.8315Z" fill="white"/>
<path d="M14.6059 34.0072L11.0905 29.2763L7.5708 31.526V18.6351L14.6059 21.1207V34.0072Z" fill="white"/>
<defs>
<linearGradient id="paint0_linear_2339_211" x1="22.1285" y1="48.0563" x2="87.8721" y2="48.0563" gradientUnits="userSpaceOnUse">
<stop stop-color="#FF0000"/>
<stop offset="1" stop-color="#0050FF"/>
</linearGradient>
</defs>
</svg>
