<svg width="35" height="34" viewBox="0 0 35 34" fill="none" xmlns="http://www.w3.org/2000/svg">
<circle cx="17.8889" cy="17" r="17" fill="white"/>
<path d="M14.2378 17.3778C14.2378 15.5696 15.7032 14.1034 17.5115 14.1034C19.3197 14.1034 20.7859 15.5696 20.7859 17.3778C20.7859 19.1859 19.3197 20.6521 17.5115 20.6521C15.7032 20.6521 14.2378 19.1859 14.2378 17.3778ZM12.4677 17.3778C12.4677 20.1633 14.7258 22.4214 17.5115 22.4214C20.2972 22.4214 22.5553 20.1633 22.5553 17.3778C22.5553 14.5922 20.2972 12.3342 17.5115 12.3342C14.7258 12.3342 12.4677 14.5922 12.4677 17.3778ZM21.5762 12.1342C21.5761 12.3673 21.6452 12.5952 21.7746 12.7891C21.904 12.983 22.0881 13.1341 22.3034 13.2234C22.5188 13.3127 22.7558 13.3362 22.9844 13.2908C23.2131 13.2454 23.4232 13.1332 23.5881 12.9684C23.753 12.8037 23.8653 12.5937 23.9109 12.3651C23.9565 12.1364 23.9332 11.8994 23.8441 11.684C23.755 11.4686 23.604 11.2845 23.4102 11.1549C23.2164 11.0253 22.9885 10.9561 22.7554 10.956H22.7549C22.4424 10.9561 22.1428 11.0803 21.9218 11.3012C21.7008 11.5221 21.5765 11.8217 21.5762 12.1342V12.1342ZM13.5431 25.3728C12.5855 25.3292 12.0649 25.1697 11.719 25.0349C11.2604 24.8564 10.9332 24.6438 10.5892 24.3002C10.2452 23.9567 10.0322 23.6298 9.85445 23.1712C9.71961 22.8255 9.56009 22.3048 9.51656 21.3472C9.46894 20.3119 9.45943 20.0008 9.45943 17.3778C9.45943 14.7548 9.46972 14.4447 9.51656 13.4085C9.56017 12.4509 9.72087 11.9312 9.85445 11.5845C10.033 11.1259 10.2456 10.7987 10.5892 10.4547C10.9327 10.1107 11.2596 9.89771 11.719 9.71997C12.0648 9.58513 12.5855 9.42561 13.5431 9.38208C14.5785 9.33446 14.8895 9.32496 17.5115 9.32496C20.1334 9.32496 20.4447 9.33525 21.481 9.38208C22.4386 9.42569 22.9583 9.58638 23.3051 9.71997C23.7637 9.89771 24.0909 10.1111 24.4349 10.4547C24.7789 10.7982 24.9911 11.1259 25.1696 11.5845C25.3045 11.9302 25.464 12.4509 25.5075 13.4085C25.5552 14.4447 25.5647 14.7548 25.5647 17.3778C25.5647 20.0008 25.5552 20.311 25.5075 21.3472C25.4639 22.3048 25.3036 22.8253 25.1696 23.1712C24.9911 23.6298 24.7785 23.957 24.4349 24.3002C24.0914 24.6435 23.7637 24.8564 23.3051 25.0349C22.9593 25.1698 22.4386 25.3293 21.481 25.3728C20.4456 25.4204 20.1346 25.4299 17.5115 25.4299C14.8883 25.4299 14.5782 25.4204 13.5431 25.3728V25.3728ZM13.4618 7.61503C12.4161 7.66264 11.7016 7.82844 11.0776 8.07125C10.4313 8.32199 9.88424 8.65838 9.33755 9.20418C8.79086 9.74998 8.45532 10.2979 8.20457 10.9441C7.96175 11.5685 7.79595 12.2826 7.74833 13.3283C7.69992 14.3755 7.68884 14.7104 7.68884 17.3778C7.68884 20.0452 7.69992 20.38 7.74833 21.4273C7.79595 22.473 7.96175 23.187 8.20457 23.8114C8.45532 24.4572 8.79094 25.0058 9.33755 25.5513C9.88416 26.0969 10.4313 26.4328 11.0776 26.6843C11.7028 26.9271 12.4161 27.0929 13.4618 27.1405C14.5097 27.1881 14.8439 27.2 17.5115 27.2C20.179 27.2 20.5138 27.1889 21.5611 27.1405C22.6069 27.0929 23.3209 26.9271 23.9453 26.6843C24.5912 26.4328 25.1387 26.0971 25.6854 25.5513C26.2321 25.0055 26.5669 24.4572 26.8183 23.8114C27.0612 23.187 27.2278 22.4729 27.2746 21.4273C27.3222 20.3792 27.3333 20.0452 27.3333 17.3778C27.3333 14.7104 27.3222 14.3755 27.2746 13.3283C27.227 12.2825 27.0612 11.5681 26.8183 10.9441C26.5669 10.2983 26.2312 9.75085 25.6854 9.20418C25.1395 8.65752 24.5912 8.32199 23.9461 8.07125C23.3209 7.82844 22.6068 7.66186 21.5619 7.61503C20.5146 7.56741 20.1798 7.55554 17.5122 7.55554C14.8447 7.55554 14.5097 7.56662 13.4618 7.61503Z" fill="url(#paint0_linear_3193_30829)"/>
<defs>
<linearGradient id="paint0_linear_3193_30829" x1="17.5111" y1="7.55554" x2="17.5111" y2="27.2" gradientUnits="userSpaceOnUse">
<stop stop-color="#FF0000"/>
<stop offset="1" stop-color="#005AFA"/>
</linearGradient>
</defs>
</svg>
