<svg width="35" height="34" viewBox="0 0 35 34" fill="none" xmlns="http://www.w3.org/2000/svg">
<circle cx="17.7778" cy="17" r="17" fill="white"/>
<path d="M13.6178 24.933V14.7372H10.0545V24.933H13.6182H13.6178ZM11.8369 13.3454C13.0792 13.3454 13.8527 12.5625 13.8527 11.5841C13.8294 10.5833 13.0792 9.82227 11.8605 9.82227C10.641 9.82227 9.84448 10.5833 9.84448 11.584C9.84448 12.5624 10.6176 13.3453 11.8135 13.3453H11.8366L11.8369 13.3454ZM15.5901 24.933H19.1531V19.2398C19.1531 18.9355 19.1764 18.6304 19.2705 18.413C19.528 17.804 20.1142 17.1735 21.0988 17.1735C22.3878 17.1735 22.9038 18.1084 22.9038 19.4791V24.933H26.4667V19.0871C26.4667 15.9555 24.7091 14.4982 22.3648 14.4982C20.4428 14.4982 19.5987 15.5199 19.1297 16.2157H19.1534V14.7376H15.5903C15.6368 15.6941 15.59 24.9334 15.59 24.9334L15.5901 24.933Z" fill="url(#paint0_linear_3193_31022)"/>
<defs>
<linearGradient id="paint0_linear_3193_31022" x1="18.1556" y1="9.82227" x2="18.1556" y2="24.9334" gradientUnits="userSpaceOnUse">
<stop stop-color="#FF0000"/>
<stop offset="1" stop-color="#005AFA"/>
</linearGradient>
</defs>
</svg>
