<svg width="35" height="34" viewBox="0 0 35 34" fill="none" xmlns="http://www.w3.org/2000/svg">
<circle cx="17.6666" cy="17" r="17" fill="white"/>
<path d="M27.7792 11.7283C27.1438 11.9962 26.4757 12.1828 25.7916 12.2834C26.1115 12.2297 26.5821 11.6656 26.7694 11.4373C27.054 11.0929 27.2709 10.6997 27.4091 10.2777C27.4091 10.2464 27.4411 10.2016 27.4091 10.1792C27.393 10.1706 27.3749 10.1661 27.3566 10.1661C27.3382 10.1661 27.3202 10.1706 27.304 10.1792C26.5612 10.5734 25.7705 10.8742 24.9509 11.0746C24.9223 11.0832 24.8919 11.084 24.8629 11.0769C24.8339 11.0698 24.8075 11.0551 24.7864 11.0343C24.7226 10.9599 24.6539 10.8896 24.5807 10.8239C24.2464 10.5304 23.8671 10.2902 23.4567 10.1121C22.9027 9.88937 22.3043 9.79292 21.7067 9.83001C21.1268 9.86589 20.5606 10.0183 20.0434 10.2777C19.5341 10.5512 19.0865 10.9228 18.7275 11.3701C18.3498 11.8305 18.0772 12.3648 17.9279 12.9371C17.8047 13.4814 17.7908 14.044 17.8867 14.5936C17.8867 14.6876 17.8867 14.7011 17.8045 14.6876C14.5466 14.2175 11.8736 13.0848 9.68944 10.6538C9.59349 10.5463 9.54323 10.5463 9.46555 10.6538C8.51514 12.0685 8.97664 14.3071 10.1647 15.4129C10.3246 15.5607 10.4891 15.7039 10.6627 15.8382C10.118 15.8004 9.58661 15.6557 9.10001 15.4129C9.00862 15.3547 8.95836 15.3861 8.95379 15.4935C8.94084 15.6425 8.94084 15.7922 8.95379 15.9412C9.04913 16.6551 9.33627 17.3314 9.78586 17.9009C10.2354 18.4704 10.8313 18.9128 11.5126 19.1826C11.6787 19.2523 11.8517 19.3048 12.0289 19.3393C11.5247 19.4366 11.0075 19.4517 10.4982 19.3841C10.3885 19.3617 10.3474 19.4199 10.3885 19.5229C11.0602 21.3137 12.5178 21.8599 13.587 22.1643C13.7333 22.1867 13.8795 22.1867 14.044 22.2225C14.044 22.2225 14.044 22.2225 14.0166 22.2494C13.7013 22.8135 12.4264 23.1941 11.8416 23.3911C10.774 23.7668 9.63585 23.9104 8.506 23.8119C8.3278 23.785 8.28667 23.7895 8.24098 23.8119C8.19529 23.8343 8.24098 23.8835 8.29124 23.9283C8.51971 24.076 8.74817 24.2059 8.98577 24.3312C9.69312 24.7093 10.4409 25.0096 11.2156 25.2267C15.2274 26.3101 19.7419 25.5132 22.753 22.5807C25.1199 20.2795 25.9515 17.1053 25.9515 13.9265C25.9515 13.8056 26.1023 13.734 26.1891 13.6713C26.7879 13.2142 27.3159 12.6743 27.7564 12.0685C27.8327 11.9783 27.8718 11.8633 27.8661 11.7462V11.7462C27.8661 11.679 27.8661 11.6925 27.7792 11.7283Z" fill="url(#paint0_linear_3193_31221)"/>
<defs>
<linearGradient id="paint0_linear_3193_31221" x1="18.0444" y1="9.82227" x2="18.0444" y2="25.6889" gradientUnits="userSpaceOnUse">
<stop stop-color="#FF0000"/>
<stop offset="1" stop-color="#005AFA"/>
</linearGradient>
</defs>
</svg>
